<?xml version="1.0" encoding="UTF-8" standalone="no"?>
<svg
   width="105.82mm"
   height="122mm"
   version="1.1"
   viewBox="0 0 105.82 122"
   xml:space="preserve"
   id="svg100"
   sodipodi:docname="altPropane.svg"
   inkscape:version="1.2.1 (9c6d41e4, 2022-07-14)"
   xmlns:inkscape="http://www.inkscape.org/namespaces/inkscape"
   xmlns:sodipodi="http://sodipodi.sourceforge.net/DTD/sodipodi-0.dtd"
   xmlns="http://www.w3.org/2000/svg"
   xmlns:svg="http://www.w3.org/2000/svg"><sodipodi:namedview
     id="namedview847"
     pagecolor="#ffffff"
     bordercolor="#000000"
     borderopacity="0.25"
     inkscape:showpageshadow="2"
     inkscape:pageopacity="0.0"
     inkscape:pagecheckerboard="0"
     inkscape:deskcolor="#d1d1d1"
     inkscape:document-units="mm"
     showgrid="false"
     inkscape:zoom="0.7844616"
     inkscape:cx="131.30025"
     inkscape:cy="155.52068"
     inkscape:window-width="1309"
     inkscape:window-height="722"
     inkscape:window-x="81"
     inkscape:window-y="25"
     inkscape:window-maximized="0"
     inkscape:current-layer="svg100" /><defs
     id="defs104"><linearGradient
       id="linearGradient7144"><stop
         style="stop-color:#ffadad;stop-opacity:1;"
         offset="0"
         id="stop7142" /></linearGradient><linearGradient
       id="linearGradient7130"><stop
         style="stop-color:#ffadad;stop-opacity:1;"
         offset="0"
         id="stop7128" /></linearGradient><clipPath
       id="Clip0"><path
         d="M0 0 L161 0 L161 101 L0 101 L0 0 Z"
         transform="translate(0, 0)"
         id="path10494" /></clipPath><path
       id="XMLID_2_"
       d="M0,3.8L0,3.8L0,3.8L0,3.8L0,3.8z M434,224.2 M0,3.8" /></defs><rect
     style="mix-blend-mode:multiply;fill:#ff8e8e;fill-opacity:0;fill-rule:evenodd;stroke:#840000;stroke-width:1.464;stroke-linecap:round;stroke-miterlimit:4;stroke-dasharray:none;stroke-dashoffset:0;stroke-opacity:0.450777"
     id="rect262"
     width="103.02634"
     height="118.93182"
     x="1.3825192"
     y="1.685971"
     ry="7.1569595" /><path
     id="path2229"
     style="fill:none;fill-rule:evenodd;stroke:#000000;stroke-width:1.704;stroke-linecap:butt;stroke-linejoin:miter;stroke-miterlimit:4;stroke-dasharray:none;stroke-opacity:1"
     d="M 89.73876,71.906417 52.909999,50.643324 16.08124,71.906417"
     sodipodi:nodetypes="ccc" /><path
     style="fill:#000000;fill-opacity:1;fill-rule:evenodd;stroke:#ffe851;stroke-width:6.93543316;stroke-linejoin:bevel;stroke-dasharray:none;stroke-opacity:0.486275;paint-order:markers stroke fill"
     d="m 61.461931,271.53074 c -0.798271,-1.49158 -0.738067,-2.35561 0.2152,-3.08848 0.727946,-0.55964 32.153266,-18.78848 69.834039,-40.50854 l 68.51051,-39.49101 69.58347,40.12623 c 38.27091,22.06942 69.58635,40.61084 69.58986,41.20316 0.0285,4.80239 -2.5652,3.49372 -68.12119,-34.37128 -36.47421,-21.06742 -67.50911,-38.84769 -68.96643,-39.51169 -2.42155,-1.10333 -8.47792,2.15385 -70.33974,37.8294 -37.229523,21.47018 -68.029197,39.22714 -68.443714,39.45992 -0.414517,0.23279 -1.252419,-0.50868 -1.862005,-1.64771 z"
     id="path10591"
     transform="scale(0.26458333)" /></svg>
