<?xml version="1.0" encoding="UTF-8"?>
<svg width="105.82mm" height="122mm" version="1.1" viewBox="0 0 105.82 122" xml:space="preserve" xmlns="http://www.w3.org/2000/svg"><rect x="1.3825" y="1.686" width="103.03" height="118.93" ry="7.157" fill-opacity="0" stroke="#840000" stroke-linecap="round" stroke-opacity=".45078" stroke-width="1.464" style="mix-blend-mode:multiply"/><path d="m89.739 71.906-36.829-21.263-36.829 21.263" fill="none" stroke="#000" stroke-width="1.704"/><path transform="scale(.26458)" d="m61.462 271.53c-0.79827-1.4916-0.73807-2.3556 0.2152-3.0885 0.72795-0.55964 32.153-18.788 69.834-40.509l68.511-39.491 69.583 40.126c38.271 22.069 69.586 40.611 69.59 41.203 0.0285 4.8024-2.5652 3.4937-68.121-34.371-36.474-21.067-67.509-38.848-68.966-39.512-2.4216-1.1033-8.4779 2.1538-70.34 37.829-37.23 21.47-68.029 39.227-68.444 39.46-0.41452 0.23279-1.2524-0.50868-1.862-1.6477z" fill-rule="evenodd" stroke="#ffe851" stroke-linejoin="bevel" stroke-opacity=".48628" stroke-width="6.9354" style="paint-order:markers stroke fill"/></svg>
