<?xml version="1.0" encoding="UTF-8"?>
<svg width="105.82mm" height="122mm" version="1.1" viewBox="0 0 105.82 122" xml:space="preserve" xmlns="http://www.w3.org/2000/svg" xmlns:xlink="http://www.w3.org/1999/xlink"><defs><path id="a" d="m0 3.8"/></defs><rect x="1.3825" y="1.686" width="103.03" height="118.93" ry="7.157" fill-opacity="0" stroke="#840000" stroke-linecap="round" stroke-opacity=".45078" stroke-width="1.464" style="mix-blend-mode:multiply"/><g transform="matrix(.20572 0 0 .20572 7.9123 34.101)" stroke="#ffe854" stroke-linejoin="round" stroke-opacity=".33192" stroke-width="7.3207" style="mix-blend-mode:soft-light;paint-order:markers stroke fill"><g style="paint-order:markers stroke fill">
	
	<clipPath>
		<use xlink:href="#a"/>
	</clipPath>
</g><line x1="116.3" x2="116.3" y1="168.7" y2="96.3" fill="none" stroke-linecap="square" stroke-miterlimit="10" style="paint-order:markers stroke fill"/><polyline points="117.8 168 116.3 168.9 114.7 168 114.7 95.2 117.8 97 117.8 168" clip-rule="evenodd" fill-rule="evenodd" style="paint-order:markers stroke fill"/><line x1="125" x2="125" y1="163.6" y2="101.4" fill="none" stroke-linecap="square" stroke-miterlimit="10" style="paint-order:markers stroke fill"/><polyline points="126.5 163.9 123.5 163.9 123.5 101.2 126.5 101.2 126.5 163.9" clip-rule="evenodd" fill-rule="evenodd" style="paint-order:markers stroke fill"/><line x1="179.2" x2="116.5" y1="205" y2="169" fill="none" stroke-linecap="square" stroke-miterlimit="10" style="paint-order:markers stroke fill"/><polyline points="179.3 203.5 179.3 207 116.3 170.6 116.3 168.9 117.8 168 179.3 203.5" clip-rule="evenodd" fill-rule="evenodd" style="paint-order:markers stroke fill"/><line x1="242" x2="179.5" y1="169" y2="205" fill="none" stroke-linecap="square" stroke-miterlimit="10" style="paint-order:markers stroke fill"/><polyline points="240.7 168 243.8 169.8 179.3 207 179.3 203.5 240.7 168" clip-rule="evenodd" fill-rule="evenodd" style="paint-order:markers stroke fill"/><line x1="233.4" x2="179.4" y1="164" y2="195" fill="none" stroke-linecap="square" stroke-miterlimit="10" style="paint-order:markers stroke fill"/><polyline points="232.8 162.6 234.4 165.2 180 196.5 178.6 193.9 232.8 162.6" clip-rule="evenodd" fill-rule="evenodd" style="paint-order:markers stroke fill"/><line x1="242.3" x2="242.3" y1="96.3" y2="168.7" fill="none" stroke-linecap="square" stroke-miterlimit="10" style="paint-order:markers stroke fill"/><polyline points="240.7 97 242.3 96.2 243.8 97 243.8 169.8 240.7 168 240.7 97" clip-rule="evenodd" fill-rule="evenodd" style="paint-order:markers stroke fill"/><line x1="179.5" x2="242" y1="60" y2="96" fill="none" stroke-linecap="square" stroke-miterlimit="10" style="paint-order:markers stroke fill"/><polyline points="179.3 61.5 179.3 58 242.3 94.4 242.3 96.2 240.7 97 179.3 61.5" clip-rule="evenodd" fill-rule="evenodd" style="paint-order:markers stroke fill"/><line x1="179.4" x2="233.4" y1="70" y2="101" fill="none" stroke-linecap="square" stroke-miterlimit="10" style="paint-order:markers stroke fill"/><polyline points="178.6 71.1 180 68.6 234.4 99.9 232.8 102.6 178.6 71.1" clip-rule="evenodd" fill-rule="evenodd" style="paint-order:markers stroke fill"/><line x1="116.5" x2="179.2" y1="96" y2="60" fill="none" stroke-linecap="square" stroke-miterlimit="10" style="paint-order:markers stroke fill"/><polyline points="117.8 97 114.7 95.2 179.3 58 179.3 61.5 117.8 97" clip-rule="evenodd" fill-rule="evenodd" style="paint-order:markers stroke fill"/><text transform="translate(2.1602 221.61)" font-family="ArialMT" font-size="45px" style="paint-order:markers stroke fill">H</text><text transform="translate(34.56 221.61)" font-family="ArialMT" font-size="45px" style="paint-order:markers stroke fill">O</text><line x1="68.2" x2="116.2" y1="196.6" y2="169" fill="none" stroke-linecap="square" stroke-miterlimit="10" style="paint-order:markers stroke fill"/><polyline points="68.6 198.1 67.2 195.4 114.7 168 116.3 168.9 116.3 170.6 68.6 198.1" clip-rule="evenodd" fill-rule="evenodd" style="paint-order:markers stroke fill"/><text transform="translate(288.96 38.609)" font-family="ArialMT" font-size="45px" style="paint-order:markers stroke fill">H</text><text transform="translate(288.96 76.17)" font-family="ArialMT" font-size="45px" style="paint-order:markers stroke fill">N</text><line x1="288.8" x2="242.4" y1="69.3" y2="96" fill="none" stroke-linecap="square" stroke-miterlimit="10" style="paint-order:markers stroke fill"/><polyline points="288.2 67.9 289.8 70.5 243.8 97 242.3 96.2 242.3 94.4 288.2 67.9" clip-rule="evenodd" fill-rule="evenodd" style="paint-order:markers stroke fill"/><line x1="368" x2="321.4" y1="96" y2="69.2" fill="none" stroke-linecap="square" stroke-miterlimit="10" style="paint-order:markers stroke fill"/><polyline points="368.2 94.4 368.2 97.9 320.5 70.4 322 67.8 368.2 94.4" clip-rule="evenodd" fill-rule="evenodd" style="paint-order:markers stroke fill"/><line x1="430.9" x2="368.4" y1="60" y2="96" fill="none" stroke-linecap="square" stroke-miterlimit="10" style="paint-order:markers stroke fill"/><polyline points="430.4 58.5 431.2 59.8 431.9 61.2 368.2 97.9 368.2 94.4 430.4 58.5" clip-rule="evenodd" fill-rule="evenodd" style="paint-order:markers stroke fill"/><text transform="translate(350.64 185.25)" font-family="ArialMT" font-size="45px" style="paint-order:markers stroke fill">O</text><line x1="372.6" x2="372.6" y1="150.2" y2="93.8" fill="none" stroke-linecap="square" stroke-miterlimit="10" style="paint-order:markers stroke fill"/><polyline points="374 150.3 371 150.3 371 93.7 374 93.7 374 150.3" clip-rule="evenodd" fill-rule="evenodd" style="paint-order:markers stroke fill"/><line x1="363.8" x2="363.8" y1="150.2" y2="93.8" fill="none" stroke-linecap="square" stroke-miterlimit="10" style="paint-order:markers stroke fill"/><polyline points="365.4 150.3 362.3 150.3 362.3 93.7 365.4 93.7 365.4 150.3" clip-rule="evenodd" fill-rule="evenodd" style="paint-order:markers stroke fill"/></g></svg>
