<?xml version="1.0" encoding="UTF-8" standalone="no"?>
<svg
   width="105.82mm"
   height="122mm"
   version="1.1"
   viewBox="0 0 105.82 122"
   xml:space="preserve"
   id="svg100"
   xmlns="http://www.w3.org/2000/svg"
   ><defs
     id="defs104"><linearGradient
       id="linearGradient7144"><stop
         style="stop-color:#ffadad;stop-opacity:1;"
         offset="0"
         id="stop7142" /></linearGradient><linearGradient
       id="linearGradient7130"><stop
         style="stop-color:#ffadad;stop-opacity:1;"
         offset="0"
         id="stop7128" /></linearGradient><clipPath
       id="Clip0"><path
         d="M0 0 L161 0 L161 101 L0 101 L0 0 Z"
         transform="translate(0, 0)"
         id="path10494" /></clipPath><path
       id="XMLID_2_"
       d="M0,3.8L0,3.8L0,3.8L0,3.8L0,3.8z M434,224.2 M0,3.8" /></defs><rect
     style="mix-blend-mode:multiply;fill:#ff8e8e;fill-opacity:0;fill-rule:evenodd;stroke:#840000;stroke-width:1.464;stroke-linecap:round;stroke-miterlimit:4;stroke-dasharray:none;stroke-dashoffset:0;stroke-opacity:0.450777"
     id="rect262"
     width="103.02634"
     height="118.93182"
     x="1.3825192"
     y="1.685971"
     ry="7.1569595" /><path
     d="m 25.17351,88.267711 -0.392038,-0.598322 2.7298,-1.580674 c 1.501389,-0.869364 7.65239,-4.422613 13.668891,-7.8961 l 10.939098,-6.315434 0.06323,-11.081139 0.06323,-11.081145 h 0.726818 0.726819 v 11.03575 11.035746 l 12.336871,7.120164 c 6.785277,3.91609 12.96666,7.488204 13.736407,7.938031 1.29052,0.754156 1.377903,0.859487 1.121755,1.352141 -0.152779,0.293851 -0.300911,0.563098 -0.329173,0.598331 -0.0283,0.03525 -6.219783,-3.494451 -13.758934,-7.843736 C 59.032427,76.466642 52.946938,73.101781 52.748066,73.178097 52.39739,73.312669 27.051943,87.907117 26.080134,88.534065 25.617343,88.83263 25.526107,88.805824 25.173516,88.267711 Z M 50.610451,47.432714 c -1.547832,-0.506022 -2.875309,-1.693018 -3.643999,-3.258369 -0.601249,-1.224378 -0.681374,-1.659102 -0.681374,-3.696908 0,-2.039869 0.07982,-2.471902 0.683951,-3.702177 1.462813,-2.9789 4.497825,-4.230273 7.840886,-3.232895 2.575968,0.76852 4.162723,3.02047 4.407347,6.255004 0.339141,4.48422 -2.083017,7.635807 -6.053706,7.876783 -0.898086,0.05451 -1.953024,-0.04525 -2.553105,-0.241438 z m 4.726034,-2.245861 C 56.51233,44.24954 57.117188,43.013108 57.2804,41.2132 c 0.250218,-2.759484 -0.776797,-4.987523 -2.702009,-5.861795 -2.513081,-1.141236 -5.324954,0.142576 -6.111211,2.7902 -1.295154,4.36126 0.871259,8.097074 4.559939,7.863258 1.104102,-0.06997 1.584417,-0.24012 2.309366,-0.81801 z m 6.384869,-4.709416 v -7.049638 h 0.972367 0.972364 v 2.917093 2.91709 h 3.646364 3.646364 v -2.91709 -2.917093 h 0.972368 0.972362 v 7.049638 7.049641 H 71.931181 70.958813 V 44.245347 40.96362 h -3.646364 -3.646364 v 3.281727 3.281731 h -0.972364 -0.972367 z"
     id="path2453"
     style="fill:#000000;stroke-width:0.397;stroke-dasharray:none;stroke:#000000;stroke-opacity:0.97409326" /></svg>
