<?xml version="1.0" encoding="UTF-8" standalone="no"?>
<svg
   width="105.82mm"
   height="122mm"
   version="1.1"
   viewBox="0 0 105.82 122"
   xml:space="preserve"
   id="svg100"
   xmlns="http://www.w3.org/2000/svg"
   ><defs
     id="defs104"><linearGradient
       id="linearGradient7144"><stop
         style="stop-color:#ffadad;stop-opacity:1;"
         offset="0"
         id="stop7142" /></linearGradient><linearGradient
       id="linearGradient7130"><stop
         style="stop-color:#ffadad;stop-opacity:1;"
         offset="0"
         id="stop7128" /></linearGradient><clipPath
       id="Clip0"><path
         d="M0 0 L161 0 L161 101 L0 101 L0 0 Z"
         transform="translate(0, 0)"
         id="path10494" /></clipPath><path
       id="XMLID_2_"
       d="M0,3.8L0,3.8L0,3.8L0,3.8L0,3.8z M434,224.2 M0,3.8" /></defs><rect
     style="mix-blend-mode:multiply;fill:#ff8e8e;fill-opacity:0;fill-rule:evenodd;stroke:#840000;stroke-width:1.464;stroke-linecap:round;stroke-miterlimit:4;stroke-dasharray:none;stroke-dashoffset:0;stroke-opacity:0.450777"
     id="rect262"
     width="103.02634"
     height="118.93182"
     x="1.3825192"
     y="1.685971"
     ry="7.1569595" /><g
     id="g14136"
     transform="matrix(0.32471281,0,0,0.32471281,10.661664,50.123277)"
     style="stroke-width:5.92831555;stroke-dasharray:none"><g
       style="font-size:15px;font-family:Helvetica;stroke:#000000;stroke-width:1.99921828;stroke-linecap:round;stroke-miterlimit:4;stroke-dasharray:none"
       id="g3013"
       transform="matrix(2.9653168,0,0,2.9653168,-173.81861,-346.97604)"><path
         id="line3015"
         d="M 61.0126,137.5126 83.916534,124.28425"
         style="stroke-width:1.99921828;stroke-miterlimit:4;stroke-dasharray:none" /></g><g
       style="font-size:15px;font-family:Helvetica;stroke:#000000;stroke-width:1.99921828;stroke-linecap:round;stroke-miterlimit:4;stroke-dasharray:none"
       id="g3017"
       transform="matrix(2.9653168,0,0,2.9653168,-173.81861,-346.97604)"><path
         id="line3019"
         d="M 83.916534,124.28425 106.82047,137.5126"
         style="stroke-width:1.99921828;stroke-miterlimit:4;stroke-dasharray:none" /></g><g
       style="font-size:15px;font-family:Helvetica;stroke:#000000;stroke-width:1.99921828;stroke-linecap:round;stroke-miterlimit:4;stroke-dasharray:none"
       id="g3021"
       transform="matrix(2.9653168,0,0,2.9653168,-173.81861,-346.97604)"><path
         id="line3023"
         d="M 106.82047,137.5126 122,128.74554"
         style="stroke-width:1.99921828;stroke-miterlimit:4;stroke-dasharray:none" /></g><g
       id="text3025"
       style="font-size:15px;font-family:helvetica;fill:#000000;stroke-linecap:round;stroke-width:1.99921828;stroke-dasharray:none"
       transform="matrix(2.9653168,0,0,2.9653168,-173.81861,-339.70059)"><path
         id="path3037"
         style="font-family:helvetica;fill:#000000;stroke-width:1.99921828;stroke-dasharray:none"
         d="m 124.0251,122.05476 c 0,-1.78222 0.47852,-3.17749 1.43555,-4.18579 0.95703,-1.0083 2.19238,-1.51245 3.70605,-1.51246 0.99121,1e-5 1.88476,0.23683 2.68067,0.71045 0.79589,0.47365 1.40257,1.13405 1.82006,1.9812 0.41747,0.84718 0.62621,1.80787 0.62623,2.88208 -2e-5,1.08888 -0.21974,2.063 -0.65918,2.92237 -0.43947,0.85937 -1.06203,1.51001 -1.86768,1.9519 -0.80567,0.4419 -1.67481,0.66284 -2.60742,0.66284 -1.01075,0 -1.91407,-0.24414 -2.70996,-0.73242 -0.7959,-0.48828 -1.39893,-1.15478 -1.80908,-1.99951 -0.41016,-0.84472 -0.61524,-1.73828 -0.61524,-2.68066 z m 1.46484,0.022 c 0,1.29395 0.3479,2.31323 1.04371,3.05786 0.69579,0.74463 1.56859,1.11694 2.6184,1.11694 1.06933,0 1.94946,-0.37597 2.64038,-1.12793 0.69091,-0.75195 1.03637,-1.81884 1.03638,-3.20068 -1e-5,-0.87402 -0.14771,-1.63696 -0.44311,-2.28882 -0.29542,-0.65185 -0.72755,-1.15722 -1.29639,-1.51611 -0.56886,-0.35888 -1.20728,-0.53832 -1.91528,-0.53833 -1.00587,1e-5 -1.87135,0.34547 -2.59644,1.03638 -0.7251,0.69092 -1.08765,1.84448 -1.08765,3.46069 z" /><path
         id="path3039"
         style="font-family:helvetica;fill:#000000;stroke-width:1.99921828;stroke-dasharray:none"
         d="m 136.16133,127.28425 v -10.73731 h 1.4209 v 4.40918 h 5.58105 v -4.40918 h 1.4209 v 10.73731 h -1.4209 v -5.06104 h -5.58105 v 5.06104 z" /></g></g></svg>
