<?xml version="1.0" encoding="UTF-8" standalone="no"?>
<svg
   width="105.82mm"
   height="122mm"
   version="1.1"
   viewBox="0 0 105.82 122"
   xml:space="preserve"
   id="svg100"
   sodipodi:docname="sucrose.svg"
   inkscape:export-filename="sucrose.png"
   inkscape:export-xdpi="96"
   inkscape:export-ydpi="96"
   inkscape:version="1.2.1 (9c6d41e4, 2022-07-14)"
   xmlns:inkscape="http://www.inkscape.org/namespaces/inkscape"
   xmlns:sodipodi="http://sodipodi.sourceforge.net/DTD/sodipodi-0.dtd"
   xmlns="http://www.w3.org/2000/svg"
   xmlns:svg="http://www.w3.org/2000/svg"><sodipodi:namedview
     id="namedview1420"
     pagecolor="#ffffff"
     bordercolor="#000000"
     borderopacity="0.25"
     inkscape:showpageshadow="2"
     inkscape:pageopacity="1"
     inkscape:pagecheckerboard="0"
     inkscape:deskcolor="#d1d1d1"
     inkscape:document-units="mm"
     showgrid="false"
     inkscape:zoom="0.51181694"
     inkscape:cx="202.22074"
     inkscape:cy="332.15001"
     inkscape:window-width="1422"
     inkscape:window-height="770"
     inkscape:window-x="0"
     inkscape:window-y="25"
     inkscape:window-maximized="0"
     inkscape:current-layer="svg100" /><defs
     id="defs104"><linearGradient
       id="linearGradient7144"><stop
         style="stop-color:#ffadad;stop-opacity:1;"
         offset="0"
         id="stop7142" /></linearGradient><linearGradient
       id="linearGradient7130"><stop
         style="stop-color:#ffadad;stop-opacity:1;"
         offset="0"
         id="stop7128" /></linearGradient><clipPath
       id="Clip0"><path
         d="M0 0 L161 0 L161 101 L0 101 L0 0 Z"
         transform="translate(0, 0)"
         id="path10494" /></clipPath><path
       id="XMLID_2_"
       d="M0,3.8L0,3.8L0,3.8L0,3.8L0,3.8z M434,224.2 M0,3.8" /></defs><rect
     style="mix-blend-mode:multiply;fill:#ff8e8e;fill-opacity:0;fill-rule:evenodd;stroke:#840000;stroke-width:1.464;stroke-linecap:round;stroke-miterlimit:4;stroke-dasharray:none;stroke-dashoffset:0;stroke-opacity:0.450777"
     id="rect262"
     width="103.02634"
     height="118.93182"
     x="1.3825192"
     y="1.685971"
     ry="7.1569595" /><path
     style="fill:#ff8e8e;fill-opacity:0;fill-rule:evenodd;stroke:#ffe854;stroke-width:2.15508;stroke-linecap:round;stroke-linejoin:round;stroke-dasharray:none;stroke-opacity:0.333333;paint-order:stroke markers fill"
     d=""
     id="path28326"
     transform="scale(0.26458333)" /><g
     style="overflow:visible;stroke-width:4.78110242;stroke-dasharray:none"
     id="g31009"
     transform="matrix(0.26458333,0,0,0.26458333,9.2028794,35.721106)"><path
       style="fill:#231f20;stroke-width:4.78110242;stroke-dasharray:none"
       d="m 245.16695,124.4756 0.80655,2.4225 2.85,2.42345 H 197.761 l -0.80655,-2.42345 2.755,-2.4225 z"
       id="polygon3" /><path
       style="fill:#231f20;stroke-width:4.78110242;stroke-dasharray:none"
       d="m 172.44445,86.1431 0.0475,-1.71 1.14,0.3325 26.0775,39.71 -2.755,2.4225 -0.8075,6.46095 z"
       id="polygon5" /><path
       style="fill:#231f20;stroke-width:4.78110242;stroke-dasharray:none"
       d="m 269.29695,84.7656 1.1875,-0.3325 -0.8075,3.42 -20.85345,41.46845 -2.85,-2.42345 0.80845,-7.8375 z"
       id="polygon7" /><path
       style="fill:#231f20;stroke-width:4.78110242;stroke-dasharray:none"
       d="m 211.251,64.0081 0.7125,1.425 -38.33155,19.3325 -1.14,-0.3325 0.8075,-1.2825 z"
       id="polygon9" /><path
       id="path13"
       d="m 213.3011,60.95385 c 0,-2.71035 0.7277,-4.83075 2.18215,-6.3631 1.45635,-1.5333 3.3345,-2.29995 5.6373,-2.29995 1.5067,0 2.86615,0.36005 4.07645,1.08015 1.20935,0.72105 2.1318,1.72425 2.76735,3.01245 0.63555,1.2882 0.95285,2.7493 0.95285,4.3814 0,1.65585 -0.3344,3.1369 -1.0032,4.44315 -0.6688,1.30625 -1.615,2.29615 -2.83955,2.9678 -1.22645,0.67165 -2.5479,1.00795 -3.9653,1.00795 -1.53805,0 -2.9108,-0.37145 -4.1211,-1.1134 -1.21125,-0.74195 -2.128,-1.75655 -2.7512,-3.04 -0.6232,-1.28345 -0.93575,-2.6429 -0.93575,-4.07645 z m 2.22585,0.02755 c 0,1.9665 0.52915,3.51595 1.5865,4.64835 1.05925,1.13145 2.3864,1.69765 3.98335,1.69765 1.62545,0 2.96495,-0.5719 4.01565,-1.71475 1.0507,-1.14285 1.577,-2.7645 1.577,-4.86495 0,-1.3281 -0.2242,-2.48805 -0.6745,-3.4789 -0.4503,-0.99085 -1.10675,-1.7594 -1.97125,-2.3047 -0.86545,-0.5453 -1.8373,-0.81795 -2.9127,-0.81795 -1.53045,0 -2.8462,0.52535 -3.9501,1.5751 -1.102,1.04975 -1.65395,2.80345 -1.65395,5.26015 z"
       style="fill:#231f20;stroke-width:4.78110242;stroke-dasharray:none" /><path
       style="fill:#231f20;stroke-width:4.78110242;stroke-dasharray:none"
       d="m 230.2985,65.3856 0.7125,-1.425 40.28095,19.9975 -0.8075,0.475 -1.1875,0.3325 z"
       id="polygon15" /><path
       id="path19"
       d="m 177.66375,39.32995 2.16695,0.5453 c -0.4522,1.7765 -1.2654,3.1312 -2.44055,4.06315 -1.17515,0.93195 -2.6125,1.39935 -4.31015,1.39935 -1.7575,0 -3.1863,-0.35815 -4.28735,-1.0754 -1.10105,-0.7163 -1.93895,-1.7556 -2.5137,-3.1141 -0.57475,-1.35945 -0.86165,-2.8196 -0.86165,-4.37855 0,-1.7005 0.32395,-3.18535 0.9728,-4.4517 0.64885,-1.26635 1.5713,-2.22965 2.76925,-2.8861 1.197,-0.65645 2.5137,-0.9861 3.952,-0.9861 1.63115,0 3.002,0.4161 4.1135,1.2483 1.1115,0.83315 1.8867,2.0026 2.3237,3.51215 l -2.1223,0.50065 c -0.3781,-1.1875 -0.92625,-2.052 -1.64445,-2.5935 -0.71915,-0.5415 -1.62355,-0.81225 -2.71225,-0.81225 -1.2521,0 -2.299,0.3002 -3.1407,0.90155 -0.84075,0.60135 -1.43165,1.4079 -1.7727,2.42155 -0.34105,1.01365 -0.5111,2.0577 -0.5111,3.13405 0,1.38795 0.2014,2.5992 0.60515,3.6347 0.40375,1.0355 1.03075,1.8088 1.8829,2.32085 0.85215,0.51205 1.77365,0.76855 2.7664,0.76855 1.20745,0 2.2287,-0.34865 3.06565,-1.0469 0.83695,-0.69825 1.40125,-1.7328 1.6986,-3.10555 z"
       style="fill:#231f20;stroke-width:4.78110242;stroke-dasharray:none" /><path
       id="path21"
       d="M 182.58,45.0556 V 28.72795 h 2.16695 v 6.70985 h 8.44645 v -6.70985 h 2.16695 v 16.3286 h -2.16695 v -7.6893 h -8.44645 v 7.6893 H 182.58 Z"
       style="fill:#231f20;stroke-width:4.78110242;stroke-dasharray:none" /><path
       id="path25"
       d="m 205.72485,47.89135 v 1.4402 h -8.10445 c -0.0114,-0.36195 0.0475,-0.70965 0.1767,-1.04405 0.20805,-0.551 0.53865,-1.09345 0.99655,-1.62735 0.456,-0.5339 1.1115,-1.15045 1.96555,-1.84965 1.3262,-1.09535 2.22585,-1.9608 2.698,-2.5973 0.4731,-0.6365 0.70965,-1.23975 0.70965,-1.80785 0,-0.5947 -0.21375,-1.09535 -0.6422,-1.5048 -0.42655,-0.4085 -0.9842,-0.61275 -1.672,-0.61275 -0.7277,0 -1.30815,0.21755 -1.7442,0.6536 -0.43605,0.43605 -0.65645,1.0393 -0.66215,1.80975 l -1.54375,-0.1634 c 0.10545,-1.1552 0.50445,-2.0349 1.197,-2.6391 0.69255,-0.6061 1.6207,-0.9082 2.7873,-0.9082 1.1761,0 2.109,0.32585 2.79395,0.97755 0.68685,0.6517 1.0298,1.4592 1.0298,2.4225 0,0.4902 -0.0998,0.97185 -0.30115,1.44495 -0.2014,0.4731 -0.53485,0.97185 -1.00035,1.4953 -0.46645,0.52345 -1.2388,1.24165 -2.318,2.1546 -0.90345,0.7581 -1.4839,1.2711 -1.74135,1.54185 -0.25745,0.26885 -0.4712,0.54055 -0.63935,0.8132 h 6.01445 z"
       style="fill:#231f20;stroke-width:4.78110242;stroke-dasharray:none" /><path
       id="path29"
       d="m 206.9855,37.10885 c 0,-2.71035 0.7277,-4.83075 2.1831,-6.3631 1.4554,-1.5333 3.3345,-2.29995 5.63635,-2.29995 1.50765,0 2.86615,0.36005 4.07645,1.08015 1.2103,0.72105 2.13275,1.72425 2.76735,3.01245 0.63555,1.28725 0.95285,2.7493 0.95285,4.3814 0,1.65585 -0.3344,3.1369 -1.0032,4.44315 -0.66785,1.30625 -1.61405,2.29615 -2.83955,2.9678 -1.2255,0.67165 -2.54695,1.00795 -3.9653,1.00795 -1.5371,0 -2.9108,-0.37145 -4.1211,-1.1134 -1.2103,-0.74195 -2.12705,-1.75655 -2.7512,-3.04 -0.62415,-1.2844 -0.93575,-2.6429 -0.93575,-4.07645 z m 2.2268,0.02755 c 0,1.9665 0.52915,3.51595 1.58745,4.64835 1.0583,1.1324 2.3864,1.69765 3.9824,1.69765 1.6264,0 2.96495,-0.5719 4.0166,-1.71475 1.04975,-1.14285 1.57605,-2.7645 1.57605,-4.86495 0,-1.3281 -0.2242,-2.48805 -0.6745,-3.4789 -0.44935,-0.99085 -1.1058,-1.7594 -1.97125,-2.3047 -0.86545,-0.5453 -1.83635,-0.81795 -2.9127,-0.81795 -1.5295,0 -2.8462,0.52535 -3.94915,1.5751 -1.10295,1.04975 -1.6549,2.8044 -1.6549,5.26015 z"
       style="fill:#231f20;stroke-width:4.78110242;stroke-dasharray:none" /><path
       id="path31"
       d="M 225.46205,45.0556 V 28.72795 h 2.16695 v 6.70985 h 8.44645 v -6.70985 h 2.16695 v 16.3286 h -2.16695 v -7.6893 H 227.629 v 7.6893 h -2.16695 z"
       style="fill:#231f20;stroke-width:4.78110242;stroke-dasharray:none" /><path
       style="fill:#231f20;stroke-width:4.78110242;stroke-dasharray:none"
       d="m 171.68445,47.4306 h 1.615 v 35.72 l -0.8075,1.2825 -0.8075,-0.19 z"
       id="polygon33" /><path
       id="path37"
       d="m 189.17015,165.64385 c 0,-2.71035 0.7277,-4.83075 2.18215,-6.3631 1.45635,-1.5333 3.3345,-2.29995 5.6373,-2.29995 1.5067,0 2.86615,0.36005 4.07645,1.08015 1.20935,0.72105 2.1318,1.72425 2.76735,3.01245 0.63555,1.2882 0.95285,2.7493 0.95285,4.3814 0,1.65585 -0.3344,3.1369 -1.0032,4.44315 -0.6688,1.30625 -1.615,2.29615 -2.83955,2.9678 -1.22645,0.67165 -2.5479,1.00795 -3.9653,1.00795 -1.53805,0 -2.9108,-0.37145 -4.1211,-1.1134 -1.21125,-0.74195 -2.128,-1.75655 -2.7512,-3.04 -0.6232,-1.28345 -0.93575,-2.6429 -0.93575,-4.07645 z m 2.2268,0.0276 c 0,1.9665 0.52915,3.51595 1.5865,4.64835 1.05925,1.13145 2.3864,1.69765 3.98335,1.69765 1.62545,0 2.96495,-0.5719 4.01565,-1.71475 1.0507,-1.14285 1.577,-2.7645 1.577,-4.86495 0,-1.3281 -0.2242,-2.48805 -0.6745,-3.4789 -0.4503,-0.99085 -1.10675,-1.7594 -1.97125,-2.3047 -0.86545,-0.5453 -1.8373,-0.81795 -2.9127,-0.81795 -1.53045,0 -2.8462,0.52535 -3.9501,1.5751 -1.10295,1.0507 -1.65395,2.80345 -1.65395,5.26015 z"
       style="fill:#231f20;stroke-width:4.78110242;stroke-dasharray:none" /><path
       id="path39"
       d="M 207.64765,173.5906 V 157.262 h 2.16695 v 6.70985 h 8.44645 V 157.262 h 2.16695 v 16.3286 h -2.16695 v -7.6893 h -8.44645 v 7.6893 z"
       style="fill:#231f20;stroke-width:4.78110242;stroke-dasharray:none" /><path
       style="fill:#231f20;stroke-width:4.78110242;stroke-dasharray:none"
       d="m 197.761,154.77965 h -1.61405 v -21.4206 l 0.8075,-6.46095 0.80655,2.42345 z"
       id="polygon41" /><path
       id="path45"
       d="M 222.59305,98.1606 V 81.832 H 224.76 v 6.70985 h 8.44645 V 81.832 h 2.16695 v 16.3286 h -2.16695 V 90.4713 H 224.76 v 7.6893 z"
       style="fill:#231f20;stroke-width:4.78110242;stroke-dasharray:none" /><path
       id="path47"
       d="m 238.3165,90.21385 c 0,-2.71035 0.7277,-4.83075 2.18215,-6.3631 1.45635,-1.5333 3.3345,-2.29995 5.6373,-2.29995 1.5067,0 2.86615,0.36005 4.07645,1.08015 1.20935,0.72105 2.1318,1.72425 2.76735,3.01245 0.63555,1.2882 0.95285,2.7493 0.95285,4.3814 0,1.65585 -0.3344,3.1369 -1.0032,4.44315 -0.6688,1.30625 -1.615,2.29615 -2.83955,2.9678 -1.22645,0.67165 -2.5479,1.00795 -3.9653,1.00795 -1.53805,0 -2.9108,-0.37145 -4.1211,-1.1134 -1.21125,-0.74195 -2.128,-1.75655 -2.7512,-3.04 -0.6232,-1.28345 -0.93575,-2.64385 -0.93575,-4.07645 z m 2.22585,0.02755 c 0,1.9665 0.52915,3.51595 1.5865,4.64835 1.05925,1.13145 2.3864,1.69765 3.98335,1.69765 1.62545,0 2.96495,-0.5719 4.01565,-1.71475 1.0507,-1.14285 1.577,-2.7645 1.577,-4.86495 0,-1.3281 -0.2242,-2.48805 -0.6745,-3.4789 -0.4503,-0.99085 -1.10675,-1.7594 -1.97125,-2.3047 -0.86545,-0.5453 -1.8373,-0.81795 -2.9127,-0.81795 -1.53045,0 -2.8462,0.52535 -3.9501,1.5751 -1.102,1.04975 -1.65395,2.80345 -1.65395,5.26015 z"
       style="fill:#231f20;stroke-width:4.78110242;stroke-dasharray:none" /><path
       style="fill:#231f20;stroke-width:4.78110242;stroke-dasharray:none"
       d="m 245.16695,100.58405 h 1.615 v 18.47655 l -0.80845,7.8375 -0.80655,-2.4225 z"
       id="polygon49" /><path
       id="path53"
       d="m 275.70375,125.39995 2.16695,0.5453 c -0.45315,1.7765 -1.2673,3.1312 -2.4415,4.06315 -1.1742,0.93195 -2.61155,1.39935 -4.3092,1.39935 -1.7575,0 -3.1863,-0.35815 -4.28735,-1.0754 -1.102,-0.7163 -1.93895,-1.7556 -2.5137,-3.1141 -0.5738,-1.35945 -0.8607,-2.8196 -0.8607,-4.37855 0,-1.7005 0.32395,-3.18535 0.97185,-4.4517 0.6479,-1.26635 1.5713,-2.22965 2.7683,-2.8861 1.197,-0.65645 2.5137,-0.9861 3.952,-0.9861 1.63115,0 3.002,0.4161 4.1135,1.2483 1.1134,0.83315 1.8867,2.0026 2.32465,3.51215 l -2.1223,0.50065 c -0.3781,-1.1875 -0.9272,-2.052 -1.6454,-2.5935 -0.7182,-0.5415 -1.62355,-0.81225 -2.71225,-0.81225 -1.2521,0 -2.299,0.3002 -3.13975,0.90155 -0.8417,0.60135 -1.4326,1.4079 -1.77365,2.42155 -0.3401,1.0127 -0.51015,2.0577 -0.51015,3.13405 0,1.38795 0.2014,2.5992 0.60515,3.6347 0.40375,1.0355 1.0317,1.8088 1.8829,2.32085 0.8512,0.51205 1.77365,0.76855 2.76545,0.76855 1.20745,0 2.22965,-0.34865 3.0666,-1.0469 0.83695,-0.69825 1.4022,-1.7328 1.6986,-3.10555 z"
       style="fill:#231f20;stroke-width:4.78110242;stroke-dasharray:none" /><path
       id="path55"
       d="M 280.62095,131.1256 V 114.797 h 2.16695 v 6.70985 h 8.44645 V 114.797 h 2.16695 v 16.3286 h -2.16695 v -7.6893 h -8.44645 v 7.6893 z"
       style="fill:#231f20;stroke-width:4.78110242;stroke-dasharray:none" /><path
       id="path59"
       d="m 303.76485,133.9604 v 1.4402 h -8.10445 c -0.0114,-0.36195 0.0475,-0.70965 0.1767,-1.04405 0.2071,-0.551 0.53865,-1.09345 0.9956,-1.62735 0.45695,-0.5339 1.11245,-1.15045 1.9665,-1.84965 1.3262,-1.09535 2.2249,-1.9608 2.698,-2.5973 0.4731,-0.6365 0.70965,-1.23975 0.70965,-1.80785 0,-0.5947 -0.2147,-1.09535 -0.64125,-1.5048 -0.42845,-0.4085 -0.98515,-0.61275 -1.67295,-0.61275 -0.7277,0 -1.30815,0.21755 -1.7442,0.6536 -0.43605,0.43605 -0.65645,1.0393 -0.66215,1.80975 l -1.54375,-0.1634 c 0.10545,-1.1552 0.50445,-2.0349 1.197,-2.6391 0.6916,-0.6061 1.6207,-0.9082 2.7873,-0.9082 1.17705,0 2.109,0.32585 2.7949,0.97755 0.6859,0.6517 1.02885,1.4592 1.02885,2.4225 0,0.4902 -0.1007,0.97185 -0.30115,1.44495 -0.20045,0.4731 -0.53485,0.97185 -1.00035,1.4953 -0.46645,0.52345 -1.23975,1.24165 -2.318,2.1546 -0.9025,0.7581 -1.4839,1.2711 -1.74135,1.54185 -0.25745,0.26885 -0.4712,0.54055 -0.63935,0.8132 h 6.01445 z"
       style="fill:#231f20;stroke-width:4.78110242;stroke-dasharray:none" /><path
       id="path63"
       d="m 305.0255,123.17885 c 0,-2.71035 0.7277,-4.83075 2.1831,-6.3631 1.4554,-1.5333 3.3345,-2.29995 5.63635,-2.29995 1.50765,0 2.8671,0.36005 4.07645,1.08015 1.20935,0.72105 2.13275,1.72425 2.7683,3.01245 0.6346,1.28725 0.9519,2.7493 0.9519,4.3814 0,1.65585 -0.3344,3.1369 -1.00225,4.44315 -0.6688,1.30625 -1.61595,2.29615 -2.8405,2.9678 -1.2255,0.67165 -2.5479,1.00795 -3.9653,1.00795 -1.5371,0 -2.9108,-0.37145 -4.1211,-1.1134 -1.2103,-0.74195 -2.12705,-1.75655 -2.7512,-3.04 -0.6232,-1.28535 -0.93575,-2.6429 -0.93575,-4.07645 z m 2.2268,0.0276 c 0,1.9665 0.52915,3.51595 1.58745,4.64835 1.0583,1.1324 2.3864,1.69765 3.9824,1.69765 1.6264,0 2.96495,-0.5719 4.0166,-1.71475 1.05165,-1.14285 1.57605,-2.7645 1.57605,-4.86495 0,-1.3281 -0.2242,-2.48805 -0.67355,-3.4789 -0.4503,-0.99085 -1.1077,-1.7594 -1.9722,-2.3047 -0.8645,-0.5453 -1.83635,-0.81795 -2.9127,-0.81795 -1.5295,0 -2.8462,0.52535 -3.94915,1.5751 -1.10295,1.04975 -1.6549,2.80345 -1.6549,5.26015 z"
       style="fill:#231f20;stroke-width:4.78110242;stroke-dasharray:none" /><path
       id="path65"
       d="M 323.503,131.1256 V 114.797 h 2.16695 v 6.70985 h 8.44645 V 114.797 h 2.16695 v 16.3286 h -2.16695 v -7.6893 h -8.44645 v 7.6893 z"
       style="fill:#231f20;stroke-width:4.78110242;stroke-dasharray:none" /><path
       style="fill:#231f20;stroke-width:4.78110242;stroke-dasharray:none"
       d="m 271.29195,112.3631 h -1.615 v -24.51 l 0.8075,-3.42 0.8075,-0.475 z"
       id="polygon67" /><path
       style="fill:#231f20;stroke-width:4.78110242;stroke-dasharray:none"
       d="m 97.39445,116.6856 2.7075,2.42345 -0.8075,2.4206 h -50.8725 l 2.66,-2.4206 0.80655,-2.42345 z"
       id="polygon69" /><path
       style="fill:#231f20;stroke-width:4.78110242;stroke-dasharray:none"
       d="m 17.26195,86.5706 -0.8075,-2.1375 h 1.1875 l 32.6325,29.1175 0.8075,5.55845 -2.66,2.4206 z"
       id="polygon71" /><path
       style="fill:#231f20;stroke-width:4.78110242;stroke-dasharray:none"
       d="m 50.27445,49.4731 0.8075,0.3325 0.3325,0.8075 -33.7725,33.82 h -1.1875 l -0.8075,-0.3325 z"
       id="polygon73" /><path
       id="path77"
       d="m 92.31765,50.8354 c 0,-2.71035 0.7277,-4.83075 2.1831,-6.3631 1.4554,-1.5333 3.3345,-2.29995 5.63635,-2.29995 1.50765,0 2.86615,0.36005 4.07645,1.08015 1.2103,0.72105 2.13275,1.72425 2.7683,3.01245 0.63555,1.2882 0.9519,2.7493 0.9519,4.3814 0,1.65585 -0.3344,3.1369 -1.00225,4.44315 -0.66785,1.30625 -1.615,2.29615 -2.8405,2.9678 -1.2255,0.67165 -2.54695,1.00795 -3.9653,1.00795 -1.5371,0 -2.9108,-0.37145 -4.1211,-1.1134 -1.2103,-0.74195 -2.12705,-1.75655 -2.7512,-3.04 -0.62415,-1.28345 -0.93575,-2.6429 -0.93575,-4.07645 z m 2.2268,0.0285 c 0,1.9665 0.52915,3.51595 1.58745,4.64835 1.0583,1.1324 2.3864,1.69765 3.9824,1.69765 1.6264,0 2.96495,-0.5719 4.0166,-1.71475 1.0507,-1.14285 1.57605,-2.7645 1.57605,-4.86495 0,-1.3281 -0.2242,-2.48805 -0.67355,-3.4789 -0.44935,-0.99085 -1.10675,-1.7594 -1.9722,-2.3047 -0.86545,-0.5453 -1.83635,-0.81795 -2.9127,-0.81795 -1.5295,0 -2.8462,0.52535 -3.94915,1.5751 -1.10295,1.04975 -1.6549,2.80345 -1.6549,5.26015 z"
       style="fill:#231f20;stroke-width:4.78110242;stroke-dasharray:none" /><path
       style="fill:#231f20;stroke-width:4.78110242;stroke-dasharray:none"
       d="m 90.07945,48.9981 v 1.615 h -38.665 l -0.3325,-0.8075 0.80655,-0.8075 z"
       id="polygon79" /><path
       style="fill:#231f20;stroke-width:4.78110242;stroke-dasharray:none"
       d="m 135.39445,83.9581 -0.6175,0.475 h -1.1875 l -26.1725,-26.22 1.14,-1.14 z"
       id="polygon81" /><path
       style="fill:#231f20;stroke-width:4.78110242;stroke-dasharray:none"
       d="m 100.90945,123.66715 -0.8075,-4.5581 -2.7075,-2.42345 36.195,-32.2525 h 1.1875 l -0.1425,1.3775 z"
       id="polygon83" /><path
       id="path87"
       d="m 43.29765,82.4229 c 0,-2.71035 0.7277,-4.83075 2.1831,-6.3631 1.4554,-1.5333 3.3345,-2.29995 5.63635,-2.29995 1.50765,0 2.86615,0.36005 4.07645,1.08015 1.2103,0.72105 2.13275,1.72425 2.7683,3.01245 0.63555,1.2882 0.9519,2.7493 0.9519,4.3814 0,1.65585 -0.3344,3.1369 -1.00225,4.44315 -0.66785,1.30625 -1.615,2.29615 -2.8405,2.9678 -1.2255,0.67165 -2.54695,1.00795 -3.9653,1.00795 -1.5371,0 -2.9108,-0.37145 -4.1211,-1.1134 -1.2103,-0.74195 -2.12705,-1.75655 -2.7512,-3.04 -0.62415,-1.28345 -0.93575,-2.6429 -0.93575,-4.07645 z m 2.2268,0.0285 c 0,1.9665 0.52915,3.51595 1.58745,4.64835 1.0583,1.1324 2.3864,1.69765 3.9824,1.69765 1.6264,0 2.96495,-0.5719 4.0166,-1.71475 1.0507,-1.14285 1.57605,-2.7645 1.57605,-4.86495 0,-1.3281 -0.2242,-2.48805 -0.67355,-3.4789 -0.44935,-0.99085 -1.10675,-1.7594 -1.9722,-2.3047 -0.86545,-0.5453 -1.83635,-0.81795 -2.9127,-0.81795 -1.5295,0 -2.8462,0.52535 -3.94915,1.5751 -1.10295,1.04975 -1.6549,2.80345 -1.6549,5.26015 z"
       style="fill:#231f20;stroke-width:4.78110242;stroke-dasharray:none" /><path
       id="path89"
       d="M 61.7742,90.3706 V 74.042 h 2.16695 v 6.70985 H 72.3876 V 74.042 h 2.16695 V 90.3706 H 72.3876 v -7.6893 h -8.44645 v 7.6893 z"
       style="fill:#231f20;stroke-width:4.78110242;stroke-dasharray:none" /><path
       style="fill:#231f20;stroke-width:4.78110242;stroke-dasharray:none"
       d="m 50.27445,92.79215 h 1.61405 v 23.89345 l -0.80655,2.42345 -0.8075,-5.55845 z"
       id="polygon91" /><path
       id="path95"
       d="m 92.31765,157.85385 c 0,-2.71035 0.7277,-4.83075 2.1831,-6.3631 1.4554,-1.5333 3.3345,-2.29995 5.63635,-2.29995 1.50765,0 2.86615,0.36005 4.07645,1.08015 1.2103,0.72105 2.13275,1.72425 2.7683,3.01245 0.63555,1.2882 0.9519,2.7493 0.9519,4.3814 0,1.65585 -0.3344,3.1369 -1.00225,4.44315 -0.66785,1.30625 -1.615,2.29615 -2.8405,2.9678 -1.2255,0.67165 -2.54695,1.00795 -3.9653,1.00795 -1.5371,0 -2.9108,-0.37145 -4.1211,-1.1134 -1.2103,-0.74195 -2.12705,-1.75655 -2.7512,-3.04 -0.62415,-1.28345 -0.93575,-2.6429 -0.93575,-4.07645 z m 2.2268,0.0276 c 0,1.9665 0.52915,3.51595 1.58745,4.64835 1.0583,1.1324 2.3864,1.69765 3.9824,1.69765 1.6264,0 2.96495,-0.5719 4.0166,-1.71475 1.0507,-1.14285 1.57605,-2.7645 1.57605,-4.86495 0,-1.3281 -0.2242,-2.48805 -0.67355,-3.4789 -0.44935,-0.99085 -1.10675,-1.7594 -1.9722,-2.3047 -0.86545,-0.5453 -1.83635,-0.81795 -2.9127,-0.81795 -1.5295,0 -2.8462,0.52535 -3.94915,1.5751 -1.10295,1.04975 -1.6549,2.80345 -1.6549,5.26015 z"
       style="fill:#231f20;stroke-width:4.78110242;stroke-dasharray:none" /><path
       id="path97"
       d="M 110.7942,165.8006 V 149.472 h 2.16695 v 6.70985 h 8.44645 V 149.472 h 2.16695 v 16.3286 h -2.16695 v -7.6893 h -8.44645 v 7.6893 z"
       style="fill:#231f20;stroke-width:4.78110242;stroke-dasharray:none" /><path
       style="fill:#231f20;stroke-width:4.78110242;stroke-dasharray:none"
       d="m 100.90945,146.9906 h -1.615 v -25.46095 l 0.8075,-2.4206 0.8075,4.5581 z"
       id="polygon99" /><path
       style="fill:#231f20;stroke-width:4.78110242;stroke-dasharray:none"
       d="m 149.35945,108.0881 -1.425,0.80845 -13.3,-23.08595 0.1425,-1.3775 0.6175,-0.475 z"
       id="polygon101" /><path
       id="path105"
       d="m 8.62265,123.17885 c 0,-2.71035 0.7277,-4.83075 2.1831,-6.3631 1.4554,-1.5333 3.3345,-2.29995 5.63635,-2.29995 1.50765,0 2.86615,0.36005 4.07645,1.08015 1.2103,0.72105 2.13275,1.72425 2.7683,3.01245 0.63555,1.2882 0.9519,2.7493 0.9519,4.3814 0,1.65585 -0.3344,3.1369 -1.00225,4.44315 -0.66785,1.30625 -1.615,2.29615 -2.8405,2.9678 -1.2255,0.67165 -2.54695,1.00795 -3.9653,1.00795 -1.5371,0 -2.9108,-0.37145 -4.1211,-1.1134 -1.2103,-0.74195 -2.12705,-1.75655 -2.7512,-3.04 -0.62415,-1.28345 -0.93575,-2.6429 -0.93575,-4.07645 z m 2.2268,0.0276 c 0,1.9665 0.52915,3.51595 1.58745,4.64835 1.0583,1.1324 2.3864,1.69765 3.9824,1.69765 1.6264,0 2.96495,-0.5719 4.0166,-1.71475 1.0507,-1.14285 1.57605,-2.7645 1.57605,-4.86495 0,-1.3281 -0.2242,-2.48805 -0.67355,-3.4789 -0.44935,-0.99085 -1.10675,-1.7594 -1.9722,-2.3047 -0.86545,-0.5453 -1.83635,-0.81795 -2.9127,-0.81795 -1.5295,0 -2.8462,0.52535 -3.94915,1.5751 -1.10295,1.04975 -1.6549,2.80345 -1.6549,5.26015 z"
       style="fill:#231f20;stroke-width:4.78110242;stroke-dasharray:none" /><path
       id="path107"
       d="M 27.0992,131.1256 V 114.797 h 2.16695 v 6.70985 H 37.7126 V 114.797 h 2.16695 v 16.3286 H 37.7126 v -7.6893 h -8.44645 v 7.6893 z"
       style="fill:#231f20;stroke-width:4.78110242;stroke-dasharray:none" /><path
       style="fill:#231f20;stroke-width:4.78110242;stroke-dasharray:none"
       d="m 17.26195,112.3631 h -1.615 V 84.1006 l 0.8075,0.3325 0.8075,2.1375 z"
       id="polygon109" /><path
       id="path113"
       d="m 56.30125,15.34245 2.16695,0.5453 c -0.4522,1.7765 -1.26635,3.1312 -2.44055,4.06315 -1.17515,0.93195 -2.6125,1.39935 -4.31015,1.39935 -1.7575,0 -3.1863,-0.35815 -4.28735,-1.0754 -1.10105,-0.7163 -1.93895,-1.7556 -2.5137,-3.1141 -0.57475,-1.35945 -0.86165,-2.8196 -0.86165,-4.37855 0,-1.7005 0.32395,-3.18535 0.9728,-4.4517 0.64885,-1.26635 1.5713,-2.22965 2.76925,-2.8861 1.19605,-0.65645 2.5137,-0.9861 3.952,-0.9861 1.63115,0 3.002,0.4161 4.1135,1.2483 1.11245,0.83315 1.8867,2.0026 2.3237,3.51215 L 56.06375,9.7194 C 55.68565,8.5319 55.1375,7.6674 54.4193,7.1259 53.70015,6.5844 52.79575,6.31365 51.70705,6.31365 c -1.2521,0 -2.299,0.3002 -3.1407,0.90155 -0.84075,0.60135 -1.43165,1.4079 -1.7727,2.42155 -0.34105,1.01365 -0.5111,2.0577 -0.5111,3.13405 0,1.38795 0.2014,2.5992 0.60515,3.6347 0.40375,1.0355 1.03075,1.8088 1.8829,2.32085 0.85215,0.51205 1.77365,0.76855 2.7664,0.76855 1.20745,0 2.2287,-0.34865 3.06565,-1.0469 0.83695,-0.69825 1.40125,-1.7328 1.6986,-3.10555 z"
       style="fill:#231f20;stroke-width:4.78110242;stroke-dasharray:none" /><path
       id="path115"
       d="M 61.2175,21.0681 V 4.74045 h 2.16695 V 11.4503 H 71.8309 V 4.74045 h 2.16695 v 16.3286 H 71.8309 v -7.6893 h -8.44645 v 7.6893 H 61.2175 Z"
       style="fill:#231f20;stroke-width:4.78110242;stroke-dasharray:none" /><path
       id="path119"
       d="m 84.36235,23.90385 v 1.4402 H 76.2579 C 76.2465,24.9821 76.3054,24.6344 76.4346,24.3 c 0.2071,-0.551 0.53865,-1.09345 0.9956,-1.62735 0.456,-0.5339 1.1115,-1.15045 1.9665,-1.84965 1.3262,-1.09535 2.2249,-1.9608 2.698,-2.5973 0.4731,-0.6365 0.70965,-1.23975 0.70965,-1.80785 0,-0.5947 -0.21375,-1.09535 -0.64125,-1.5048 -0.4275,-0.4085 -0.98515,-0.61275 -1.672,-0.61275 -0.7277,0 -1.30815,0.21755 -1.7442,0.6536 -0.43605,0.43605 -0.65645,1.0393 -0.66215,1.80975 L 76.541,16.60025 c 0.10545,-1.1552 0.50445,-2.0349 1.197,-2.6391 0.6916,-0.6061 1.6207,-0.9082 2.7873,-0.9082 1.17705,0 2.109,0.32585 2.7949,0.97755 0.6859,0.6517 1.02885,1.4592 1.02885,2.4225 0,0.4902 -0.1007,0.97185 -0.30115,1.44495 -0.20045,0.4731 -0.53485,0.97185 -1.00035,1.4953 -0.46645,0.52345 -1.2388,1.24165 -2.318,2.1546 -0.90345,0.7581 -1.4839,1.2711 -1.74135,1.54185 -0.25745,0.26885 -0.4712,0.54055 -0.63935,0.8132 h 6.0135 z"
       style="fill:#231f20;stroke-width:4.78110242;stroke-dasharray:none" /><path
       id="path123"
       d="m 85.623,13.12135 c 0,-2.71035 0.7277,-4.83075 2.1831,-6.3631 1.4554,-1.5333 3.3345,-2.29995 5.63635,-2.29995 1.50765,0 2.86615,0.36005 4.07645,1.08015 1.2103,0.72105 2.13275,1.72425 2.7683,3.01245 0.63555,1.2882 0.9519,2.7493 0.9519,4.3814 0,1.65585 -0.3344,3.1369 -1.00225,4.44315 -0.66785,1.30625 -1.615,2.29615 -2.8405,2.9678 -1.2255,0.67165 -2.54695,1.00795 -3.9653,1.00795 -1.5371,0 -2.9108,-0.37145 -4.1211,-1.1134 -1.2103,-0.74195 -2.12705,-1.75655 -2.7512,-3.04 C 85.9346,15.91435 85.623,14.5549 85.623,13.12135 Z m 2.2268,0.02755 c 0,1.9665 0.52915,3.51595 1.58745,4.64835 1.0583,1.1324 2.3864,1.69765 3.9824,1.69765 1.6264,0 2.96495,-0.5719 4.0166,-1.71475 1.0507,-1.14285 1.57605,-2.7645 1.57605,-4.86495 0,-1.3281 -0.2242,-2.48805 -0.67355,-3.4789 C 97.8894,8.44545 97.232,7.6769 96.36655,7.1316 95.5011,6.5863 94.5302,6.31365 93.45385,6.31365 c -1.5295,0 -2.8462,0.52535 -3.94915,1.5751 -1.10295,1.04975 -1.6549,2.8044 -1.6549,5.26015 z"
       style="fill:#231f20;stroke-width:4.78110242;stroke-dasharray:none" /><path
       id="path125"
       d="M 104.09955,21.0681 V 4.74045 h 2.16695 v 6.70985 h 8.44645 V 4.74045 h 2.16695 v 16.3286 h -2.16695 v -7.6893 h -8.44645 v 7.6893 h -2.16695 z"
       style="fill:#231f20;stroke-width:4.78110242;stroke-dasharray:none" /><path
       style="fill:#231f20;stroke-width:4.78110242;stroke-dasharray:none"
       d="m 50.27445,23.4431 h 1.61405 v 25.555 l -0.80655,0.8075 -0.8075,-0.3325 z"
       id="polygon127" /><path
       id="path131"
       d="m 145.80265,118.14385 c 0,-2.71035 0.7277,-4.83075 2.1831,-6.3631 1.4554,-1.5333 3.3345,-2.29995 5.63635,-2.29995 1.50765,0 2.86615,0.36005 4.07645,1.08015 1.2103,0.72105 2.13275,1.72425 2.7683,3.01245 0.63555,1.2882 0.9519,2.7493 0.9519,4.3814 0,1.65585 -0.3344,3.1369 -1.00225,4.44315 -0.66785,1.30625 -1.615,2.29615 -2.8405,2.9678 -1.2255,0.67165 -2.54695,1.00795 -3.9653,1.00795 -1.5371,0 -2.9108,-0.37145 -4.1211,-1.1134 -1.2103,-0.74195 -2.12705,-1.75655 -2.7512,-3.04 -0.62415,-1.28345 -0.93575,-2.6429 -0.93575,-4.07645 z m 2.2268,0.0276 c 0,1.9665 0.52915,3.51595 1.58745,4.64835 1.0583,1.1324 2.3864,1.69765 3.9824,1.69765 1.6264,0 2.96495,-0.5719 4.0166,-1.71475 1.0507,-1.14285 1.57605,-2.7645 1.57605,-4.86495 0,-1.3281 -0.2242,-2.48805 -0.67355,-3.4789 -0.44935,-0.99085 -1.10675,-1.7594 -1.9722,-2.3047 -0.86545,-0.5453 -1.83635,-0.81795 -2.9127,-0.81795 -1.5295,0 -2.8462,0.52535 -3.94915,1.5751 -1.10295,1.04975 -1.6549,2.80345 -1.6549,5.26015 z"
       style="fill:#231f20;stroke-width:4.78110242;stroke-dasharray:none" /><path
       style="fill:#231f20;stroke-width:4.78110242;stroke-dasharray:none"
       d="m 159.28695,108.89655 -1.3775,-0.80845 13.775,-23.845 0.8075,0.19 -0.0475,1.71 z"
       id="polygon133" /></g></svg>
